<svg width="91" height="91" viewBox="0 0 91 91" fill="none" xmlns="http://www.w3.org/2000/svg">
<path d="M48.7637 19.4795C47.9478 18.5548 46.8259 18 45.5 18C44.1741 18 43.0522 18.5548 42.2363 19.4795C40.5025 21.6062 25 40.4692 25 51.9349C25 64.5103 35.403 72 45.5 72C55.597 72 66 64.5103 66 51.9349C66 40.4692 50.4975 21.6062 48.7637 19.4795ZM45.5 64.6027C39.4826 64.6027 33.1592 60.1644 33.1592 51.9349C33.1592 45.8322 40.4005 34.8288 45.5 27.9863C51.2114 35.5685 57.8408 46.2021 57.8408 51.9349C57.8408 60.1644 51.5174 64.6027 45.5 64.6027Z" fill="white"/>
</svg>
