<svg width="91" height="91" viewBox="0 0 91 91" fill="none" xmlns="http://www.w3.org/2000/svg">
<path d="M45.5 23.5C33.4 23.5 23.5 33.4 23.5 45.5C23.5 57.6 33.4 67.5 45.5 67.5C57.6 67.5 67.5 57.6 67.5 45.5C67.5 33.4 57.6 23.5 45.5 23.5ZM45.5 59.5C37.8 59.5 31.5 53.2 31.5 45.5C31.5 37.8 37.8 31.5 45.5 31.5C53.2 31.5 59.5 37.8 59.5 45.5C59.5 53.2 53.2 59.5 45.5 59.5Z" fill="white"/>
<path d="M45.1001 48.9C46.1001 48.9 47.1001 48.5 47.9001 47.7L53.7001 41.9C55.3001 40.3 55.3001 37.8 53.7001 36.2C52.1001 34.6 49.6001 34.6 48.0001 36.2L42.2001 42C40.6001 43.6 40.6001 46.1 42.2001 47.7C43.1001 48.5 44.1001 48.9 45.1001 48.9Z" fill="white"/>
</svg>
