<svg width="100" height="100" viewBox="0 0 100 100" fill="none" xmlns="http://www.w3.org/2000/svg">
<rect x="32.0919" y="32.0918" width="35.8163" height="35.8163" rx="17.9082" stroke="#FBFF47" stroke-width="5"/>
<rect x="48.801" y="11.25" width="2.5" height="14.1667" rx="1.25" stroke="#FBFF47" stroke-width="2.5"/>
<rect x="74.9235" y="49.5663" width="2.5" height="14.1667" rx="1.25" transform="rotate(-90 74.9235 49.5663)" stroke="#FBFF47" stroke-width="2.5"/>
<rect x="11.25" y="49.5663" width="2.5" height="14.1667" rx="1.25" transform="rotate(-90 11.25 49.5663)" stroke="#FBFF47" stroke-width="2.5"/>
<rect x="48.801" y="74.9235" width="2.5" height="14.1667" rx="1.25" stroke="#FBFF47" stroke-width="2.5"/>
<rect x="77.1477" y="22.3231" width="2.5" height="14.1667" rx="1.25" transform="rotate(46.2191 77.1477 22.3231)" stroke="#FBFF47" stroke-width="2.5"/>
<rect x="67.5576" y="67.6945" width="2.5" height="14.1667" rx="1.25" transform="rotate(-43.7809 67.5576 67.6945)" stroke="#FBFF47" stroke-width="2.5"/>
<rect x="23.5019" y="21.7228" width="2.5" height="14.1667" rx="1.25" transform="rotate(-43.7809 23.5019 21.7228)" stroke="#FBFF47" stroke-width="2.5"/>
<rect x="31.1759" y="66.379" width="2.5" height="14.1667" rx="1.25" transform="rotate(46.2191 31.1759 66.379)" stroke="#FBFF47" stroke-width="2.5"/>
</svg>
