<svg width="91" height="91" viewBox="0 0 91 91" fill="none" xmlns="http://www.w3.org/2000/svg">
<path d="M45.5 67.5C57.6 67.5 67.5 57.6 67.5 45.5C67.5 33.4 57.6 23.5 45.5 23.5C33.4 23.5 23.5 33.4 23.5 45.5C23.5 57.6 33.4 67.5 45.5 67.5ZM45.5 31.5C53.2 31.5 59.5 37.8 59.5 45.5C59.5 53.2 53.2 59.5 45.5 59.5C37.8 59.5 31.5 53.2 31.5 45.5C31.5 37.8 37.8 31.5 45.5 31.5Z" fill="#FFFF00"/>
<path d="M45 4C42.8 4 41 5.78882 41 7.97516V16.0248C41 18.2112 42.8 20 45 20C47.2 20 49 18.2112 49 16.0248V7.97516C49 5.68944 47.2 4 45 4Z" fill="#FFFF00"/>
<path d="M74.9752 49H83.0248C85.2112 49 87 47.2 87 45C87 42.8 85.2112 41 83.0248 41H74.9752C72.7888 41 71 42.8 71 45C71 47.2 72.7888 49 74.9752 49Z" fill="#FFFF00"/>
<path d="M45 87C47.2 87 49 85.2112 49 83.0248V74.9751C49 72.7888 47.2 71 45 71C42.8 71 41 72.7888 41 74.9751V83.0248C41 85.3105 42.8 87 45 87Z" fill="#FFFF00"/>
<path d="M4 45C4 47.2 5.78882 49 7.97516 49H16.0248C18.2112 49 20 47.2 20 45C20 42.8 18.2112 41 16.0248 41H7.97516C5.68944 41 4 42.8 4 45Z" fill="#FFFF00"/>
<path d="M70.8 14C69.8 14 68.8 14.4 68 15.2L62.2 21C60.6 22.6 60.6 25.1 62.2 26.7C63.8 28.3 66.3 28.3 67.9 26.7L73.7 20.9C75.3 19.3 75.3 16.8 73.7 15.2C72.8 14.4 71.8 14 70.8 14Z" fill="#FFFF00"/>
<path d="M67.9 75.7C69.5 77.3 72 77.3 73.6 75.7C75.2 74.1 75.2 71.6 73.6 70L67.8 64.2C67 63.4 66 63 65 63C64 63 63 63.4 62.2 64.2C60.6 65.8 60.6 68.3 62.2 69.9L67.9 75.7Z" fill="#FFFF00"/>
<path d="M22.8 75.7L28.6 69.9C30.2 68.3 30.2 65.8 28.6 64.2C27.8 63.4 26.8 63 25.8 63C24.8 63 23.8 63.4 23 64.2L17.2 70C15.6 71.6 15.6 74.1 17.2 75.7C18.7 77.3 21.3 77.3 22.8 75.7Z" fill="#FFFF00"/>
<path d="M22.8 15.2C22.1 14.4 21 14 20 14C19 14 18 14.4 17.2 15.2C15.6 16.8 15.6 19.3 17.2 20.9L23 26.7C24.6 28.3 27.1 28.3 28.7 26.7C30.3 25.1 30.3 22.6 28.7 21L22.8 15.2Z" fill="#FFFF00"/>
</svg>
