<svg width="91" height="91" viewBox="0 0 91 91" fill="none" xmlns="http://www.w3.org/2000/svg">
<path d="M52.8384 77.3099C41.4146 79.3243 29.5862 75.0127 22.1379 66.1718C10.5657 52.3717 12.4107 31.7378 26.1124 20.183C30.7936 16.2097 36.6389 13.6559 42.6983 12.8921C44.1929 12.7301 45.6121 13.2922 46.4287 14.4683C47.3438 15.627 47.4247 17.2374 46.8452 18.5581C43.1714 26.5169 44.4445 36.0405 50.08 42.6626C55.3333 48.8443 63.4834 51.875 71.5588 50.4511C72.1497 50.3469 72.7406 50.2427 73.3141 50.0401C74.774 49.6811 76.2743 50.1274 77.2705 51.1702C78.2667 52.2131 78.643 53.7714 78.1794 55.1732C76.2785 61.0932 72.8253 66.2716 68.0456 70.2622C63.7063 73.8705 58.4518 76.3201 52.8384 77.3099ZM37.298 22.577C35.1198 23.4688 33.1095 24.7371 31.2498 26.2836C20.9257 35.1104 19.5101 50.693 28.2385 61.0344C33.8913 67.7549 42.7829 70.9596 51.4492 69.4315C55.6839 68.6848 59.6291 66.8722 62.9893 64.0457C64.849 62.4993 66.4597 60.6922 67.7402 58.7402C58.6976 58.7099 49.9799 54.7638 44.0779 47.7826C38.1586 40.7029 35.8196 31.4688 37.298 22.577Z" fill="#FFFF00"/>
</svg>
