<svg width="100" height="100" viewBox="0 0 100 100" fill="none" xmlns="http://www.w3.org/2000/svg">
<path d="M76.4242 33.3628C76.752 32.2577 76.9274 31.0887 76.9274 29.8815C76.9274 23.1296 71.454 17.6562 64.7022 17.6562C60.7237 17.6562 57.1889 19.5583 54.9589 22.4964C54.8851 22.5936 54.7711 22.6658 54.647 22.6929C54.5272 22.719 54.4385 22.696 54.3807 22.6606C54.35 22.6418 54.325 22.6184 54.3066 22.5942C54.2987 22.5839 54.2928 22.5744 54.2883 22.5662C56.5936 19.2911 60.3987 17.1562 64.7022 17.1562C71.7301 17.1562 77.4274 22.8535 77.4274 29.8815C77.4274 31.3102 77.1925 32.6811 76.7604 33.9594C76.757 33.9597 76.7534 33.9599 76.7495 33.9601C76.7265 33.9608 76.6989 33.9575 76.6696 33.9477C76.6059 33.9263 76.5235 33.8681 76.4627 33.7433C76.4004 33.6152 76.3911 33.4743 76.4242 33.3628ZM64.9802 3.74259V11.8747C64.9802 12.0087 64.8716 12.1173 64.7376 12.1173C64.6036 12.1173 64.495 12.0087 64.495 11.8747V3.74259C64.495 3.60861 64.6036 3.5 64.7376 3.5C64.8716 3.5 64.9802 3.60861 64.9802 3.74259ZM82.9459 28.4653H91.078C91.212 28.4653 91.3206 28.5739 91.3206 28.7079C91.3206 28.8419 91.212 28.9505 91.078 28.9505H82.9459C82.8119 28.9505 82.7033 28.8419 82.7033 28.7079C82.7033 28.5739 82.8119 28.4653 82.9459 28.4653ZM83.7666 11.9967L77.8953 17.6233C77.7986 17.716 77.645 17.7128 77.5523 17.616C77.4596 17.5193 77.4629 17.3657 77.5596 17.273L83.4309 11.6464C83.5276 11.5537 83.6812 11.557 83.7739 11.6537C83.8666 11.7505 83.8633 11.904 83.7666 11.9967ZM47.6389 10.0296L53.2655 15.9009C53.3582 15.9976 53.355 16.1512 53.2582 16.2439C53.1615 16.3366 53.008 16.3333 52.9152 16.2366L47.2886 10.3653C47.1959 10.2685 47.1992 10.115 47.2959 10.0223C47.3927 9.92957 47.5462 9.93284 47.6389 10.0296Z" stroke="#FBFF47" stroke-width="3"/>
<path d="M23.833 45.783L25.8696 45.3699L25.8357 43.2921C25.8341 43.1949 25.8333 43.0976 25.8333 43C25.8333 33.335 33.6684 25.5 43.3333 25.5C51.4 25.5 58.1978 30.9601 60.2206 38.3906L60.955 41.0884L63.5541 40.058C65.5456 39.2685 67.719 38.8333 70 38.8333C79.665 38.8333 87.5 46.6683 87.5 56.3333C87.5 63.7262 82.915 70.0542 76.4243 72.6172L76.3819 72.634L76.3402 72.6522C74.6063 73.4111 72.6891 73.8333 70.6667 73.8333H26.6667C18.8426 73.8333 12.5 67.4907 12.5 59.6667C12.5 52.815 17.3665 47.0945 23.833 45.783Z" stroke="white" stroke-width="5"/>
</svg>
