<svg width="91" height="91" viewBox="0 0 91 91" fill="none" xmlns="http://www.w3.org/2000/svg">
<path d="M51.5 48.3H50.4C50 46.7 49.4 44.9 48.4 43C45.1 36.8 39.2 33.4 31.9 33.4C24.5 33.4 18.6 36.8 15.4 43C14.4 45 13.8 47 13.4 48.6C5.60001 50 0.200012 56.2 0.200012 64.3C0.200012 72.4 6.00001 78.8 14 80.1C14.4 80.2 14.9 80.3 15.3 80.3H51.5C61 80.3 68.2 73.4 68.2 64.3C68.2 55 61.2 48.3 51.5 48.3ZM51.5 72.3H16.9C10.9 72.3 8.20001 68.2 8.20001 64.3C8.20001 59.5 11.7 56.3 16.9 56.3C19 56.3 20.8 54.6 20.9 52.4C20.9 52.4 21 49.3 22.6 46.4C24.4 43 27.5 41.3 31.8 41.3C36.2 41.3 39.3 43 41.2 46.4C42.8 49.3 43 52.4 43 52.4C43.1 54.5 44.9 56.2 47 56.2H51.5C56.7 56.2 60.2 59.4 60.2 64.2C60.2 68.1 57.5 72.3 51.5 72.3Z" fill="white"/>
<path d="M74.3 42.8C74.3 34.2 67.3 27.2 58.7 27.2C55.6 27.2 52.5 28.1 50 29.9C48.6 30.8 48.3 32.7 49.2 34.1C50.1 35.5 52 35.8 53.4 34.9C55 33.8 56.9 33.3 58.8 33.3C64.1 33.3 68.4 37.6 68.4 42.9C68.4 44.5 68 46 67.3 47.3C66.5 48.8 67.1 50.6 68.6 51.3C69 51.5 69.5 51.6 70 51.6C71.1 51.6 72.1 51 72.7 50C73.7 47.8 74.3 45.3 74.3 42.8Z" fill="#FFFF00"/>
<path d="M58.7 22.4C60.4 22.4 61.7 21.1 61.7 19.4V13.7C61.7 12 60.4 10.7 58.7 10.7C57 10.7 55.7 12 55.7 13.7V19.4C55.7 21.1 57.1 22.4 58.7 22.4Z" fill="#FFFF00"/>
<path d="M87.8 39.8H82C80.3 39.8 79 41.1 79 42.8C79 44.5 80.3 45.8 82 45.8H87.7C89.4 45.8 90.7 44.5 90.7 42.8C90.8 41.1 89.4 39.8 87.8 39.8Z" fill="#FFFF00"/>
<path d="M75.2 29.3C76 29.3 76.7 29 77.3 28.4L81.3 24.4C82.5 23.2 82.5 21.3 81.3 20.2C80.1 19 78.2 19 77.1 20.2L73.1 24.2C71.9 25.4 71.9 27.3 73.1 28.4C73.7 29 74.4 29.3 75.2 29.3Z" fill="#FFFF00"/>
<path d="M77.3 57.2C76.1 56 74.2 56 73.1 57.2C71.9 58.4 71.9 60.3 73.1 61.4L77.1 65.4C77.7 66 78.5 66.3 79.2 66.3C80 66.3 80.7 66 81.3 65.4C82.5 64.2 82.5 62.3 81.3 61.2L77.3 57.2Z" fill="#FFFF00"/>
<path d="M40.1 28.4C40.7 29 41.5 29.3 42.2 29.3C43 29.3 43.7 29 44.3 28.4C45.5 27.2 45.5 25.3 44.3 24.2L40.3 20.2C39.1 19 37.2 19 36.1 20.2C34.9 21.4 34.9 23.3 36.1 24.4L40.1 28.4Z" fill="#FFFF00"/>
</svg>
