<svg width="100" height="100" viewBox="0 0 100 100" fill="none" xmlns="http://www.w3.org/2000/svg">
<g clip-path="url(#clip0)">
<path fill-rule="evenodd" clip-rule="evenodd" d="M70.5101 29.478C67.4005 23.1312 69.2558 15.6438 74.6678 11.355C73.7528 16.3651 74.3745 21.7005 76.7969 26.6448C79.1898 31.5287 82.9727 35.2848 87.4373 37.6912C85.2832 38.1279 83.0986 38.0942 81.0213 37.6415C83.132 39.0379 84.9623 40.8239 86.4098 42.8971C88.6946 42.6674 90.9784 42.0504 93.1669 41.0135C93.6566 40.7815 94.1325 40.5328 94.5943 40.2683C96.7018 39.0613 98.5154 37.5268 100 35.7635C97.8485 35.803 95.7166 35.5046 93.6837 34.8953C88.4397 33.3237 83.854 29.6843 81.287 24.4449C78.7249 19.2157 78.6835 13.4335 80.6897 8.42807C81.473 6.47394 82.5683 4.63821 83.9475 3C81.6502 3.04223 79.3305 3.46985 77.0848 4.31605C76.5566 4.51507 76.0325 4.73724 75.5138 4.983C65.3958 9.77663 61.1453 21.7283 66.0201 31.6779C66.5039 32.6654 67.0595 33.596 67.6776 34.4667C68.4395 34.3786 69.2145 34.3333 70 34.3333C71.7783 34.3333 73.5023 34.5654 75.1435 35.0009C73.223 33.5958 71.6139 31.7307 70.5101 29.478Z" fill="#FBFF47"/>
<path d="M23.833 45.783L25.8696 45.3699L25.8357 43.2921C25.8341 43.1949 25.8333 43.0976 25.8333 43C25.8333 33.335 33.6684 25.5 43.3333 25.5C51.4 25.5 58.1978 30.9601 60.2206 38.3906L60.955 41.0884L63.5541 40.058C65.5456 39.2685 67.719 38.8333 70 38.8333C79.665 38.8333 87.5 46.6683 87.5 56.3333C87.5 63.7262 82.915 70.0542 76.4243 72.6172L76.3819 72.634L76.3402 72.6522C74.6063 73.4111 72.6891 73.8333 70.6667 73.8333H26.6667C18.8426 73.8333 12.5 67.4907 12.5 59.6667C12.5 52.815 17.3665 47.0945 23.833 45.783Z" stroke="white" stroke-width="5"/>
</g>
<defs>
<clipPath id="clip0">
<rect width="100" height="100" fill="white"/>
</clipPath>
</defs>
</svg>
