<svg width="100" height="100" viewBox="0 0 100 100" fill="none" xmlns="http://www.w3.org/2000/svg">
<path d="M54.5112 29.7351C55.1464 30.0871 55.9906 29.6451 56.052 28.9214C56.4631 24.0805 58.7849 19.4358 62.8534 16.2461C63.7846 15.5161 64.764 14.8956 65.7772 14.3823C64.0143 20.8688 65.1955 28.1045 69.5958 33.8553C73.9982 39.609 80.638 42.587 87.3035 42.4827C86.5473 43.3676 85.6938 44.19 84.7446 44.9342C83.8804 45.6116 82.9734 46.1953 82.0353 46.6867C81.5817 46.9243 81.3711 47.463 81.5425 47.9455V47.9455C81.7365 48.4915 82.3518 48.7881 82.8667 48.5222C83.9472 47.964 84.9917 47.2962 85.9855 46.5171C87.5665 45.2776 88.9098 43.8421 90.008 42.2699C90.5249 41.53 90.9875 40.7598 91.3951 39.9655C90.5522 40.162 89.7005 40.3011 88.8456 40.3836C82.2881 41.0164 75.5442 38.3195 71.1932 32.6331C66.838 26.9411 65.9474 19.6486 68.201 13.376C68.4924 12.5651 68.8363 11.7712 69.232 11C68.3614 11.2029 67.5003 11.467 66.655 11.7931C64.8858 12.4757 63.1857 13.4298 61.6125 14.6632C57.0435 18.2452 54.4599 23.4647 54.0367 28.889C54.0095 29.2386 54.2045 29.5651 54.5112 29.7351V29.7351Z" fill="#FBFF47"/>
<path d="M30.3002 46.4781L31.5222 46.2303L31.5018 44.9836C31.5006 44.9087 31.5 44.8336 31.5 44.7584C31.5 37.3026 37.5442 31.2584 45 31.2584C51.2235 31.2584 56.4669 35.471 58.0273 41.2029L58.4679 42.8215L60.0274 42.2033C61.5643 41.594 63.2411 41.2584 65 41.2584C72.4558 41.2584 78.5 47.3026 78.5 54.7584C78.5 60.4621 74.9623 65.3432 69.9559 67.3202L69.9305 67.3302L69.9055 67.3411C68.5585 67.9306 67.0695 68.2584 65.5 68.2584H32.5C26.4249 68.2584 21.5 63.3336 21.5 57.2584C21.5 51.9378 25.279 47.4965 30.3002 46.4781Z" stroke="white" stroke-width="3"/>
</svg>
