<svg width="91" height="91" viewBox="0 0 91 91" fill="none" xmlns="http://www.w3.org/2000/svg">
<g clip-path="url(#clip0)">
<path d="M51.5 48.3H50.4C50 46.7 49.4 44.9 48.4 43C45.1 36.8 39.2 33.4 31.9 33.4C24.5 33.4 18.6 36.8 15.4 43C14.4 45 13.8 47 13.4 48.6C5.60001 50 0.200012 56.2 0.200012 64.3C0.200012 72.4 6.00001 78.8 14 80.1C14.4 80.2 14.9 80.3 15.3 80.3H51.5C61 80.3 68.2 73.4 68.2 64.3C68.2 55 61.2 48.3 51.5 48.3ZM51.5 72.3H16.9C10.9 72.3 8.20001 68.2 8.20001 64.3C8.20001 59.5 11.7 56.3 16.9 56.3C19.1 56.3 20.8 54.6 20.9 52.4C20.9 51.3 21.5 41.3 31.8 41.3C36.2 41.3 39.3 43 41.2 46.4C42.8 49.3 43 52.4 43 52.4C43.1 54.5 44.9 56.2 47 56.2H51.5C56.7 56.2 60.2 59.4 60.2 64.2C60.2 68.1 57.5 72.3 51.5 72.3Z" fill="white"/>
<path d="M91.4708 39.6592C90.7236 38.877 89.5535 38.5756 88.5861 38.8478C82.1732 40.4862 75.2974 38.3477 71.0403 33.2089C66.8007 28.1685 65.8459 21.0258 68.5346 14.9669C68.9692 13.9764 68.8593 12.7772 68.2106 11.9777C67.5445 11.0797 66.4555 10.6625 65.3549 10.755C60.79 11.3568 56.4509 13.2389 52.83 16.3144C47.8707 20.4382 44.7534 26.3697 44.1558 32.7707C44.0397 34.4158 45.2212 35.9337 46.8664 36.0498C48.5116 36.1659 49.931 35.0017 50.1455 33.3392C50.6096 28.4849 52.9679 24.0073 56.6874 20.9145C58.1068 19.7503 59.6594 18.7657 61.2641 18.0766C60.1104 24.7788 61.9516 31.7652 66.3418 37.0836C70.8305 42.3847 77.4513 45.3805 84.1594 45.4162C83.2034 46.9049 81.9172 48.2486 80.6136 49.4939C79.3738 50.5249 77.9197 51.4921 76.5119 52.1465C75.0057 52.8182 74.3161 54.666 75.0863 56.1549C75.706 57.3657 77.0441 58.0436 78.3243 57.8179C78.6197 57.7658 78.8167 57.7311 79.0948 57.5805C81.0587 56.625 82.8894 55.4898 84.5695 54.0766C88.1094 51.1169 90.7688 47.1956 92.2061 42.6773C92.4263 41.6231 92.218 40.4413 91.4708 39.6592Z" fill="#FFFF00"/>
</g>
<defs>
<clipPath id="clip0">
<rect width="91" height="91" fill="white"/>
</clipPath>
</defs>
</svg>
