<svg width="100" height="100" viewBox="0 0 100 100" fill="none" xmlns="http://www.w3.org/2000/svg">
<path d="M62.374 27.3774L64.8179 26.8817L64.7773 24.3883C64.7765 24.3423 64.7761 24.2962 64.7761 24.25C64.7761 19.6937 68.4698 16 73.0261 16C76.8264 16 80.0336 18.5722 80.9874 22.0758L81.8687 25.3132L84.9877 24.0767C85.924 23.7055 86.9475 23.5 88.0261 23.5C92.5825 23.5 96.2761 27.1937 96.2761 31.75C96.2761 35.2323 94.1175 38.2178 91.0544 39.4273L91.0036 39.4474L90.9535 39.4693C90.1759 39.8097 89.3147 40 88.4011 40H85.2245C86.1629 40.9134 87.012 41.9182 87.7573 43H88.4011C89.7364 43 91.0066 42.7208 92.1563 42.2177C96.326 40.5711 99.2761 36.5051 99.2761 31.75C99.2761 25.5368 94.2393 20.5 88.0261 20.5C87.4333 20.5 86.8512 20.5459 86.2832 20.6342C85.449 20.764 84.645 20.9854 83.8821 21.2878C83.6612 20.4764 83.3518 19.7016 82.9649 18.9742C81.0742 15.4199 77.3328 13 73.0261 13C66.8129 13 61.7761 18.0368 61.7761 24.25C61.7761 24.3125 61.7766 24.3749 61.7777 24.4372C60.3806 24.7206 59.0963 25.3146 58 26.144C58.7504 26.8208 59.4492 27.5536 60.0899 28.3359C60.7695 27.8771 61.5423 27.546 62.374 27.3774Z" fill="white"/>
<path d="M23.833 45.783L25.8696 45.3699L25.8357 43.2921C25.8341 43.1949 25.8333 43.0976 25.8333 43C25.8333 33.335 33.6684 25.5 43.3333 25.5C51.4 25.5 58.1978 30.9601 60.2206 38.3906L60.955 41.0884L63.5541 40.058C65.5456 39.2685 67.719 38.8333 70 38.8333C79.665 38.8333 87.5 46.6683 87.5 56.3333C87.5 63.7262 82.915 70.0542 76.4243 72.6172L76.3819 72.634L76.3402 72.6522C74.6063 73.4111 72.6891 73.8333 70.6667 73.8333H26.6667C18.8426 73.8333 12.5 67.4907 12.5 59.6667C12.5 52.815 17.3665 47.0945 23.833 45.783Z" stroke="white" stroke-width="5"/>
</svg>
