<svg width="91" height="91" viewBox="0 0 91 91" fill="none" xmlns="http://www.w3.org/2000/svg">
<path d="M62.8 27.1H61.7C61.3 25.5 60.7 23.7 59.7 21.8C56.4 15.6 50.5 12.2 43.2 12.2C35.8 12.2 29.9 15.6 26.7 21.8C25.7 23.8 25.1 25.8 24.7 27.4C16.9 28.8 11.5 35 11.5 43.1C11.5 48.3 14 53.1 18.1 56C19.9 57.3 22.4 56.9 23.7 55.1C25 53.3 24.6 50.8 22.8 49.5C20.8 48.1 19.6 45.7 19.6 43.1C19.6 38.3 23.1 35.1 28.3 35.1C30.5 35.1 32.2 33.4 32.3 31.2C32.3 30.1 32.9 20.1 43.2 20.1C47.6 20.1 50.7 21.8 52.6 25.2C54.2 28.1 54.4 31.2 54.4 31.2C54.5 33.3 56.3 35 58.4 35H62.9C68.1 35 71.6 38.2 71.6 43C71.6 47 69 50 65.1 50.8C62.9 51.2 61.5 53.3 61.9 55.5C62.3 57.4 63.9 58.7 65.8 58.7C66.1 58.7 66.3 58.7 66.6 58.6C74.3 57.1 79.6 50.7 79.6 42.9C79.5 33.8 72.5 27.1 62.8 27.1Z" fill="white"/>
<path d="M31.7 54.3C32 54.4 32.3 54.4 32.6 54.4C34.1 54.4 35.6 53.4 36 51.8L37.2 47.4C37.7 45.5 36.6 43.6 34.7 43.1C32.8 42.6 30.9 43.7 30.4 45.6L29.2 50C28.8 51.9 29.9 53.8 31.7 54.3Z" fill="white"/>
<path d="M58.4 43.2C56.5 42.7 54.6 43.8 54.1 45.7L52.9 50.1C52.4 52 53.5 53.9 55.4 54.4C55.7 54.5 56 54.5 56.3 54.5C57.8 54.5 59.3 53.5 59.7 51.9L60.9 47.5C61.4 45.6 60.3 43.7 58.4 43.2Z" fill="white"/>
<path d="M44.4 51.3C42.5 50.8 40.6 51.9 40.1 53.8L38.9 58.2C38.4 60.1 39.5 62 41.4 62.5C41.7 62.6 42 62.6 42.3 62.6C43.8 62.6 45.3 61.6 45.7 60L46.9 55.6C47.4 53.7 46.2 51.8 44.4 51.3Z" fill="white"/>
<path d="M30.4 59.4C28.5 58.9 26.6 60 26.1 61.9L24.9 66.3C24.4 68.2 25.5 70.1 27.4 70.6C27.7 70.7 28 70.7 28.3 70.7C29.8 70.7 31.3 69.7 31.7 68.1L32.9 63.7C33.3 61.9 32.2 59.9 30.4 59.4Z" fill="white"/>
<path d="M54 59.4C52.1 58.9 50.2 60 49.7 61.9L48.5 66.3C48 68.2 49.1 70.1 51 70.6C51.3 70.7 51.6 70.7 51.9 70.7C53.4 70.7 54.9 69.7 55.3 68.1L56.5 63.7C57 61.9 55.9 59.9 54 59.4Z" fill="white"/>
<path d="M40 67.6C38.1 67.1 36.2 68.2 35.7 70.1L34.5 74.5C34 76.4 35.1 78.3 37 78.8C37.3 78.9 37.6 78.9 37.9 78.9C39.4 78.9 40.9 77.9 41.3 76.3L42.5 71.9C43 70 41.9 68.1 40 67.6Z" fill="white"/>
</svg>
