<svg width="100" height="100" viewBox="0 0 100 100" fill="none" xmlns="http://www.w3.org/2000/svg">
<path d="M24.3299 48.2331L28.4032 47.4069L28.3354 43.2513C28.334 43.1677 28.3333 43.084 28.3333 43C28.3333 34.7157 35.0491 28 43.3333 28C50.2436 28 56.0743 32.6771 57.8084 39.0472L59.2771 44.4428L64.4754 42.382C66.1785 41.7068 68.0396 41.3333 70 41.3333C78.2843 41.3333 85 48.0491 85 56.3333C85 62.6655 81.0745 68.0931 75.5061 70.292L75.4213 70.3254L75.3379 70.362C73.914 70.9851 72.3376 71.3333 70.6667 71.3333H70.5C69.1193 71.3333 68 72.4526 68 73.8333V73.8333C68 75.214 69.1193 76.3333 70.5 76.3333H70.6667C73.0406 76.3333 75.2985 75.837 77.3425 74.9425C84.7554 72.0153 90 64.7868 90 56.3333C90 45.2876 81.0457 36.3333 70 36.3333C68.9461 36.3333 67.9113 36.4148 66.9015 36.5719C65.4184 36.8026 63.9892 37.1962 62.6328 37.7339C62.2401 36.2915 61.6901 34.9139 61.0022 33.6207C57.641 27.3021 50.9896 23 43.3333 23C32.2876 23 23.3333 31.9543 23.3333 43C23.3333 43.1112 23.3342 43.2221 23.336 43.3328C15.7272 44.876 10 51.6025 10 59.6667C10 68.8714 17.4619 76.3333 26.6667 76.3333H27.5C28.8807 76.3333 30 75.214 30 73.8333V73.8333C30 72.4526 28.8807 71.3333 27.5 71.3333H26.6667C20.2233 71.3333 15 66.11 15 59.6667C15 54.0276 19.0058 49.3129 24.3299 48.2331Z" fill="white"/>
<rect x="38.2817" y="73.9199" width="2" height="8" rx="1" transform="rotate(-160 38.2817 73.9199)" fill="#C4C4C4" stroke="white" stroke-width="2"/>
<rect x="49.1611" y="77.4833" width="2" height="8" rx="1" transform="rotate(-160 49.1611 77.4833)" fill="#C4C4C4" stroke="white" stroke-width="2"/>
<rect x="61.2817" y="73.9199" width="2" height="8" rx="1" transform="rotate(-160 61.2817 73.9199)" fill="#C4C4C4" stroke="white" stroke-width="2"/>
<rect x="34.2817" y="84.9199" width="2" height="8" rx="1" transform="rotate(-160 34.2817 84.9199)" fill="#C4C4C4" stroke="white" stroke-width="2"/>
<rect x="45.1611" y="88.4833" width="2" height="8" rx="1" transform="rotate(-160 45.1611 88.4833)" fill="#C4C4C4" stroke="white" stroke-width="2"/>
<rect x="57.2817" y="84.9199" width="2" height="8" rx="1" transform="rotate(-160 57.2817 84.9199)" fill="#C4C4C4" stroke="white" stroke-width="2"/>
<path d="M76.423 33.3628C76.7507 32.2577 76.9262 31.0887 76.9262 29.8815C76.9262 23.1296 71.4528 17.6562 64.701 17.6562C60.7225 17.6562 57.1877 19.5583 54.9577 22.4964C54.8839 22.5936 54.7699 22.6658 54.6458 22.6929C54.526 22.719 54.4373 22.696 54.3794 22.6606C54.3488 22.6418 54.3238 22.6184 54.3053 22.5942C54.2975 22.5839 54.2915 22.5744 54.2871 22.5662C56.5924 19.2911 60.3975 17.1562 64.701 17.1562C71.7289 17.1562 77.4262 22.8535 77.4262 29.8815C77.4262 31.3102 77.1913 32.6811 76.7592 33.9594C76.7558 33.9597 76.7522 33.9599 76.7483 33.9601C76.7252 33.9608 76.6977 33.9575 76.6684 33.9477C76.6047 33.9263 76.5222 33.8681 76.4615 33.7433C76.3992 33.6152 76.3899 33.4743 76.423 33.3628ZM64.979 3.74259V11.8747C64.979 12.0087 64.8704 12.1173 64.7364 12.1173C64.6024 12.1173 64.4938 12.0087 64.4938 11.8747V3.74259C64.4938 3.60861 64.6024 3.5 64.7364 3.5C64.8704 3.5 64.979 3.60861 64.979 3.74259ZM82.9447 28.4653H91.0768C91.2108 28.4653 91.3194 28.5739 91.3194 28.7079C91.3194 28.8419 91.2108 28.9505 91.0768 28.9505H82.9447C82.8107 28.9505 82.7021 28.8419 82.7021 28.7079C82.7021 28.5739 82.8107 28.4653 82.9447 28.4653ZM83.7654 11.9967L77.8941 17.6233C77.7974 17.716 77.6438 17.7128 77.5511 17.616C77.4584 17.5193 77.4617 17.3657 77.5584 17.273L83.4297 11.6464C83.5264 11.5537 83.68 11.557 83.7727 11.6537C83.8654 11.7505 83.8621 11.904 83.7654 11.9967ZM47.6377 10.0296L53.2643 15.9009C53.357 15.9976 53.3538 16.1512 53.257 16.2439C53.1603 16.3366 53.0067 16.3333 52.914 16.2366L47.2874 10.3653C47.1947 10.2685 47.198 10.115 47.2947 10.0223C47.3914 9.92957 47.545 9.93284 47.6377 10.0296Z" stroke="#FBFF47" stroke-width="3"/>
</svg>
