<svg width="91" height="91" viewBox="0 0 91 91" fill="none" xmlns="http://www.w3.org/2000/svg">
<path d="M20.2 65.7C20.5 65.8 20.8 65.8 21.1 65.8C22.6 65.8 24.1 64.8 24.5 63.2L25.7 58.8C26.2 56.9 25.1 55 23.2 54.5C21.3 54 19.4 55.1 18.9 57L17.7 61.4C17.2 63.2 18.3 65.2 20.2 65.7Z" fill="white"/>
<path d="M46.8 54.5C45 54 43 55.1 42.5 57L41.3 61.4C40.8 63.3 41.9 65.2 43.8 65.7C44.1 65.8 44.4 65.8 44.7 65.8C46.2 65.8 47.7 64.8 48.1 63.2L49.3 58.8C49.8 56.9 48.7 55 46.8 54.5Z" fill="white"/>
<path d="M32.8 62.6C30.9 62.1 29 63.2 28.5 65.1L27.3 69.5C26.8 71.4 27.9 73.3 29.8 73.8C30.1 73.9 30.4 73.9 30.7 73.9C32.2 73.9 33.7 72.9 34.1 71.3L35.3 66.9C35.8 65 34.7 63.1 32.8 62.6Z" fill="white"/>
<path d="M18.8 70.7C16.9 70.2 15 71.3 14.5 73.2L13.3 77.6C12.8 79.5 13.9 81.4 15.8 81.9C16.1 82 16.4 82 16.7 82C18.2 82 19.7 81 20.1 79.4L21.3 75C21.8 73.2 20.7 71.2 18.8 70.7Z" fill="white"/>
<path d="M42.5 70.7C40.6 70.2 38.7 71.3 38.2 73.2L37 77.6C36.5 79.5 37.6 81.4 39.5 81.9C39.8 82 40.1 82 40.4 82C41.9 82 43.4 81 43.8 79.4L45 75C45.4 73.2 44.3 71.2 42.5 70.7Z" fill="white"/>
<path d="M28.4 78.9C26.5 78.4 24.6 79.5 24.1 81.4L23 85.8C22.5 87.7 23.6 89.6 25.5 90.1C25.8 90.2 26.1 90.2 26.4 90.2C27.9 90.2 29.4 89.2 29.8 87.6L31 83.2C31.4 81.3 30.3 79.4 28.4 78.9Z" fill="white"/>
<path d="M74.1 32.9C74.1 24.3 67.1 17.3 58.5 17.3C55.4 17.3 52.3 18.2 49.8 20C48.4 20.9 48.1 22.8 49 24.2C49.9 25.6 51.8 25.9 53.2 25C54.8 23.9 56.7 23.4 58.6 23.4C63.9 23.4 68.2 27.7 68.2 33C68.2 34.6 67.8 36.1 67.1 37.4C66.3 38.9 66.9 40.7 68.4 41.4C68.8 41.6 69.3 41.7 69.8 41.7C70.9 41.7 71.9 41.1 72.5 40.1C73.5 37.9 74.1 35.4 74.1 32.9Z" fill="#FFFF00"/>
<path d="M58.5 12.5C60.2 12.5 61.5 11.2 61.5 9.5V3.8C61.5 2.1 60.2 0.800003 58.5 0.800003C56.8 0.800003 55.5 2.1 55.5 3.8V9.5C55.5 11.2 56.9 12.5 58.5 12.5Z" fill="#FFFF00"/>
<path d="M87.6 29.9H81.9C80.2 29.9 78.9 31.2 78.9 32.9C78.9 34.6 80.2 35.9 81.9 35.9H87.6C89.3 35.9 90.6 34.6 90.6 32.9C90.6 31.2 89.2 29.9 87.6 29.9Z" fill="#FFFF00"/>
<path d="M75 19.4C75.8 19.4 76.5 19.1 77.1 18.5L81.1 14.5C82.3 13.3 82.3 11.4 81.1 10.3C80 9 78.1 9 76.9 10.2L72.9 14.2C71.7 15.4 71.7 17.3 72.9 18.4C73.5 19.1 74.2 19.4 75 19.4Z" fill="#FFFF00"/>
<path d="M77.1 47.3C75.9 46.1 74 46.1 72.9 47.3C71.7 48.5 71.7 50.4 72.9 51.5L76.9 55.5C77.5 56.1 78.3 56.4 79 56.4C79.8 56.4 80.5 56.1 81.1 55.5C82.3 54.3 82.3 52.4 81.1 51.3L77.1 47.3Z" fill="#FFFF00"/>
<path d="M39.9 18.5C40.5 19.1 41.3 19.4 42 19.4C42.8 19.4 43.5 19.1 44.1 18.5C45.3 17.3 45.3 15.4 44.1 14.3L40.1 10.3C38.9 9 37 9 35.8 10.2C34.6 11.4 34.6 13.3 35.8 14.4L39.9 18.5Z" fill="#FFFF00"/>
<path d="M51.2 38.9H49.7C49.3 37.3 48.7 35.3 47.6 33.3C45.4 29 40.8 24 31.6 24C22.4 24 17.8 29.1 15.6 33.4C14.5 35.5 13.9 37.6 13.6 39.2C5.80002 40.4 0.400024 46.4 0.400024 54.4C0.400024 59.4 2.80002 64.1 6.80002 66.9C8.40002 68 10.6 67.7 11.7 66.1C12.8 64.5 12.5 62.3 10.9 61.2C8.70002 59.7 7.50002 57.2 7.50002 54.4C7.50002 49.3 11.2 45.9 16.7 45.9C18.6 45.9 20.1 44.4 20.2 42.5C20.2 41.3 20.9 31 31.6 31C42.3 31 43.2 41.4 43.3 42.6C43.4 44.5 44.9 45.9 46.8 45.9H51.3C56.8 45.9 60.5 49.3 60.5 54.4C60.5 58.6 57.8 61.9 53.6 62.7C51.7 63.1 50.5 64.9 50.8 66.8C51.1 68.5 52.6 69.6 54.2 69.6C54.4 69.6 54.6 69.6 54.9 69.5C62.3 68.1 67.5 61.8 67.5 54.3C67.4 45.4 60.6 38.9 51.2 38.9Z" fill="white"/>
</svg>
