<svg width="91" height="91" viewBox="0 0 91 91" fill="none" xmlns="http://www.w3.org/2000/svg">
<g clip-path="url(#clip0)">
<path d="M22.2 61.3C22.5 61.4 22.8 61.4 23.1 61.4C24.6 61.4 26.1 60.4 26.5 58.8L27.7 54.4C28.2 52.5 27.1 50.6 25.2 50.1C23.3 49.6 21.4 50.7 20.9 52.6L19.7 57C19.2 58.9 20.3 60.8 22.2 61.3Z" fill="white"/>
<path d="M48.9 50.2C47 49.7 45.1 50.8 44.6 52.7L43.4 57C42.9 58.9 44 60.8 45.9 61.3C46.2 61.4 46.5 61.4 46.8 61.4C48.3 61.4 49.8 60.4 50.2 58.8L51.4 54.4C51.8 52.6 50.7 50.7 48.9 50.2Z" fill="white"/>
<path d="M34.8 58.3C32.9 57.8 31 58.9 30.5 60.8L29.3 65.2C28.9 67 30 69 31.9 69.5C32.2 69.6 32.5 69.6 32.8 69.6C34.3 69.6 35.8 68.6 36.2 67L37.4 62.6C37.8 60.7 36.7 58.8 34.8 58.3Z" fill="white"/>
<path d="M20.8 66.4C19 65.9 17 67 16.5 68.9L15.3 73.3C14.8 75.2 15.9 77.1 17.8 77.6C18.1 77.7 18.4 77.7 18.7 77.7C20.2 77.7 21.7 76.7 22.1 75.1L23.3 70.7C23.8 68.8 22.7 66.9 20.8 66.4Z" fill="white"/>
<path d="M44.5 66.4C42.6 65.9 40.7 67 40.2 68.9L39 73.3C38.5 75.2 39.6 77.1 41.5 77.6C41.8 77.7 42.1 77.7 42.4 77.7C43.9 77.7 45.4 76.7 45.8 75.1L47 70.7C47.5 68.8 46.4 66.9 44.5 66.4Z" fill="white"/>
<path d="M30.5 74.5C28.6 74 26.7 75.1 26.2 77L25 81.4C24.5 83.3 25.6 85.2 27.5 85.7C27.8 85.8 28.1 85.8 28.4 85.8C29.9 85.8 31.4 84.8 31.8 83.2L33 78.8C33.5 77 32.4 75 30.5 74.5Z" fill="white"/>
<path d="M53.3 34.1H52.2C51.8 32.5 51.2 30.7 50.2 28.8C46.9 22.6 41 19.2 33.7 19.2C26.3 19.2 20.4 22.6 17.2 28.8C16.2 30.8 15.6 32.8 15.2 34.4C7.3 35.8 2 42 2 50.1C2 55.3 4.5 60.1 8.6 63C10.4 64.3 12.9 63.9 14.2 62.1C15.5 60.3 15.1 57.8 13.3 56.5C11.3 55.1 10.1 52.7 10.1 50.1C10.1 45.3 13.6 42.1 18.8 42.1C21 42.1 22.7 40.4 22.8 38.2C22.8 37.1 23.4 27.1 33.7 27.1C38.1 27.1 41.2 28.8 43.1 32.2C44.7 35.1 44.9 38.2 44.9 38.2C45 40.3 46.8 42 48.9 42H53.4C58.6 42 62.1 45.2 62.1 50C62.1 54 59.5 57 55.6 57.8C53.4 58.2 52 60.3 52.4 62.5C52.8 64.4 54.4 65.7 56.3 65.7C56.6 65.7 56.8 65.7 57.1 65.6C64.8 64.1 70.1 57.7 70.1 49.9C70 40.8 62.9 34.1 53.3 34.1Z" fill="white"/>
<path d="M89.3552 27.6476C88.608 26.8654 87.4379 26.564 86.4705 26.8362C81.8129 28.0636 76.7501 26.4177 73.6573 22.6983C70.5644 18.9789 69.841 13.7246 71.8228 9.41504C72.2574 8.42453 72.1475 7.22539 71.4988 6.42589C70.8328 5.52791 69.7438 5.11067 68.6431 5.2032C64.9646 5.64874 61.5756 7.1602 58.6556 9.60437C53.9745 13.5776 51.3495 19.4222 51.6209 25.5685C51.7018 27.1789 53.0455 28.4651 54.7718 28.4653C56.3822 28.3845 57.7669 27.0233 57.6687 25.3144C57.5129 20.9756 59.2513 17.0135 62.513 14.2044C63.2141 13.5731 63.9498 13.1387 64.784 12.687C64.2388 17.6572 65.7327 22.674 69.0572 26.5557C72.3818 30.4374 77.0563 32.7609 81.9917 33.1092C81.4066 33.8216 80.804 34.4356 80.103 35.0669C79.402 35.6982 78.5677 36.15 77.832 36.5843C76.3431 37.3546 75.8505 39.1677 76.6207 40.6565C77.2404 41.8673 78.5611 42.4468 79.7428 42.2384C80.0383 42.1863 80.3337 42.1342 80.5944 41.8852C81.8052 41.2655 82.8828 40.4662 83.8619 39.6843C86.6834 37.2575 88.775 34.1471 89.9746 30.5846C90.4092 29.5941 90.1024 28.4297 89.3552 27.6476Z" fill="#FFFF00"/>
</g>
<defs>
<clipPath id="clip0">
<rect width="91" height="91" fill="white"/>
</clipPath>
</defs>
</svg>
