<svg width="91" height="91" viewBox="0 0 91 91" fill="none" xmlns="http://www.w3.org/2000/svg">
<path d="M62.3 28.9H61.2C60.8 27.3 60.2 25.5 59.2 23.6C55.9 17.4 50 14 42.7 14C35.3 14 29.4 17.4 26.2 23.6C25.2 25.6 24.6 27.6 24.2 29.2C16.4 30.6 11 36.8 11 44.9C11 50.1 13.5 54.9 17.6 57.8C19.4 59.1 21.9 58.7 23.2 56.9C24.5 55.1 24.1 52.6 22.3 51.3C20.3 49.9 19.1 47.5 19.1 44.9C19.1 40.1 22.6 36.9 27.8 36.9C30 36.9 31.7 35.2 31.8 33C31.8 31.9 32.4 21.9 42.7 21.9C47.1 21.9 50.2 23.6 52.1 27C53.7 29.9 53.9 33 53.9 33C54 35.1 55.8 36.8 57.9 36.8H62.3C67.5 36.8 71 40 71 44.8C71 48.8 68.4 51.8 64.5 52.6C62.3 53 60.9 55.1 61.3 57.3C61.7 59.2 63.3 60.5 65.2 60.5C65.5 60.5 65.7 60.5 66 60.4C73.7 58.9 79 52.5 79 44.7C79 35.6 72 28.9 62.3 28.9Z" fill="white"/>
<path d="M34.2 45C32.3 44.5 30.4 45.6 29.9 47.5L28.7 51.9C28.2 53.8 29.3 55.7 31.2 56.2C31.5 56.3 31.8 56.3 32.1 56.3C33.6 56.3 35.1 55.3 35.5 53.7L36.7 49.3C37.2 47.4 36.1 45.5 34.2 45Z" fill="white"/>
<path d="M29.8 61.2C27.9 60.7 26 61.8 25.5 63.7L24.3 68.1C23.8 70 24.9 71.9 26.8 72.4C27.1 72.5 27.4 72.5 27.7 72.5C29.2 72.5 30.7 71.5 31.1 69.9L32.3 65.5C32.8 63.7 31.7 61.7 29.8 61.2Z" fill="white"/>
<path d="M54.0373 54.5283H50.9704L54.804 47.2642C55.0131 46.7925 55.0829 46.2264 54.8737 45.7547C54.6646 45.283 54.3161 45 53.9676 45H46.3003C45.882 45 45.4638 45.3774 45.3244 45.9434L41.0725 60.8491C40.9331 61.3208 41.0028 61.7924 41.2119 62.1698C41.421 62.5472 41.6999 62.7359 42.0484 62.7359H44.2789L41.3513 73.1132C41.1422 73.7736 41.3513 74.434 41.7696 74.8113C41.909 74.9057 42.1181 75 42.3272 75C42.606 75 42.8848 74.8113 43.0939 74.5283L54.6646 56.7925C54.9434 56.4151 55.0131 55.7547 54.804 55.283C54.804 54.8113 54.4555 54.5283 54.0373 54.5283Z" fill="#FFFF00"/>
</svg>
