<svg width="91" height="91" viewBox="0 0 91 91" fill="none" xmlns="http://www.w3.org/2000/svg">
<path d="M62.375 28.9218H61.2736C60.8731 27.3194 60.272 25.5168 59.2707 23.6141C55.9658 17.405 50.0571 14 42.7465 14C35.3356 14 29.427 17.405 26.2223 23.6141C25.2208 25.6169 24.6199 27.6199 24.2194 29.2223C16.4078 30.6243 11 36.8332 11 44.9451C11 49.3515 12.7025 53.3575 15.7068 56.3616C17.3092 57.8639 19.8128 57.8639 21.4151 56.2614C22.9173 54.6589 22.9173 52.1556 21.3149 50.553C19.8127 49.0508 19.0115 47.048 19.0115 44.8449C19.0115 40.0379 22.5166 36.8332 27.7242 36.8332C29.9274 36.8332 31.63 35.1308 31.7301 32.9275C31.7301 31.8258 32.3309 21.8112 42.6461 21.8112C47.0525 21.8112 50.157 23.5137 52.0599 26.9187C53.6622 29.8229 53.8623 32.9275 53.8623 32.9275C53.9624 35.0305 55.7651 36.733 57.8681 36.733H62.3748C67.5823 36.733 71.0875 39.9377 71.0875 44.7447C71.0875 48.2499 69.0846 51.0538 65.7796 52.2555C63.6765 52.9566 62.5749 55.2599 63.276 57.363C63.8768 59.0656 65.379 60.0669 67.0817 60.0669C67.4821 60.0669 67.983 59.9668 68.3836 59.8665C74.893 57.6632 78.9989 51.7546 78.9989 44.8447C79.0993 35.6315 72.0891 28.9218 62.375 28.9218Z" fill="white"/>
<path d="M45.0044 53.8131C46.7069 53.8131 48.0087 52.5112 48.0087 50.8085V48.0044C48.0087 46.3019 46.7067 45 45.0044 45C43.3019 45 42 46.3019 42 48.0044V50.8085C42 52.511 43.3019 53.8131 45.0044 53.8131Z" fill="white"/>
<path d="M45.1469 55.9612C44.0452 55.9612 43.0438 56.3616 42.3428 57.1629C41.6417 57.864 41.1411 58.9653 41.1411 59.967C41.1411 60.9686 41.5416 62.0699 42.3428 62.7711C43.0438 63.5723 44.1453 63.9727 45.1469 63.9727C46.2484 63.9727 47.2499 63.5723 47.951 62.7711C48.7521 62.0699 49.1527 60.9686 49.1527 59.967C49.1527 58.8655 48.7521 57.864 47.951 57.1629C47.2499 56.3616 46.1483 55.9612 45.1469 55.9612Z" fill="white"/>
<path d="M45.0044 66C43.3019 66 42 67.3018 42 69.0044V71.8085C42 73.511 43.3019 74.8129 45.0044 74.8129C46.7069 74.8129 48.0087 73.511 48.0087 71.8085V69.0044C48.0088 67.3019 46.7069 66 45.0044 66Z" fill="white"/>
<path d="M54.9874 49.3823L52.4839 50.7843C51.0819 51.5854 50.5811 53.4882 51.3824 54.8902C51.9833 55.8918 52.9848 56.3925 53.9861 56.3925C54.4868 56.3925 54.9878 56.2923 55.4883 55.9921L57.9919 54.59C59.3939 53.7887 59.8946 51.8861 59.0933 50.4841C58.2921 49.082 56.3894 48.5812 54.9874 49.3823Z" fill="white"/>
<path d="M34.9876 60.4489L32.484 61.8509C31.0819 62.6522 30.5812 64.5546 31.3824 65.9568C31.9832 66.9583 32.9846 67.459 33.9862 67.459C34.4868 67.459 34.9876 67.3587 35.4884 67.0585L37.992 65.6566C39.3942 64.8553 39.8948 62.9527 39.0937 61.5505C38.1923 60.0483 36.3898 59.5475 34.9876 60.4489Z" fill="white"/>
<path d="M57.992 61.7844L55.4883 60.3824C54.0863 59.5813 52.1837 60.0817 51.3824 61.4837C50.5811 62.8859 51.0819 64.7885 52.4839 65.5898L54.9874 66.9918C55.488 67.2923 55.9891 67.3922 56.4897 67.3922C57.4913 67.3922 58.4924 66.8915 59.0933 65.89C59.8949 64.3882 59.3939 62.5857 57.992 61.7844Z" fill="white"/>
<path d="M32.484 54.5899L34.9876 55.9921C35.4884 56.2927 35.989 56.3926 36.4898 56.3926C37.4912 56.3926 38.4928 55.8919 39.0936 54.8904C39.8948 53.4883 39.3941 51.5855 37.992 50.7844L35.4884 49.3824C34.0862 48.5811 32.1836 49.0819 31.3823 50.4839C30.5812 51.9864 31.082 53.789 32.484 54.5899Z" fill="white"/>
</svg>
