<svg width="91" height="91" viewBox="0 0 91 91" fill="none" xmlns="http://www.w3.org/2000/svg">
<path d="M36.9956 35.9912H72.7929C74.4405 35.9912 75.7885 34.6432 75.7885 32.9956C75.7885 31.348 74.4405 30 72.7929 30H36.9956C35.348 30 34 31.348 34 32.9956C34 34.6432 35.348 35.9912 36.9956 35.9912Z" fill="white"/>
<path d="M61.8502 46.6256C61.8502 44.978 60.5022 43.63 58.8546 43.63H13.9956C12.348 43.63 11 44.978 11 46.6256C11 48.2731 12.348 49.6212 13.9956 49.6212H58.8546C60.5022 49.6212 61.8502 48.2731 61.8502 46.6256Z" fill="white"/>
<path d="M76.0044 56.8106H31.1454C29.4978 56.8106 28.1498 58.1586 28.1498 59.8062C28.1498 61.4538 29.4978 62.8018 31.1454 62.8018H76.0044C77.652 62.8018 79 61.4538 79 59.8062C79 58.1586 77.652 56.8106 76.0044 56.8106Z" fill="white"/>
<path d="M25.9348 36H26.0652C27.6957 36 29 34.6667 29 33C29 31.3333 27.6957 30 26.0652 30H25.9348C24.3043 30 23 31.3333 23 33C23 34.6667 24.3043 36 25.9348 36Z" fill="white"/>
</svg>
