<svg width="100" height="100" viewBox="0 0 100 100" fill="none" xmlns="http://www.w3.org/2000/svg">
<path d="M23.833 45.783L25.8696 45.3699L25.8357 43.2921C25.8341 43.1949 25.8333 43.0976 25.8333 43C25.8333 33.335 33.6684 25.5 43.3333 25.5C51.4 25.5 58.1978 30.9601 60.2206 38.3906L60.955 41.0884L63.5541 40.058C65.5456 39.2685 67.719 38.8333 70 38.8333C79.665 38.8333 87.5 46.6683 87.5 56.3333C87.5 63.7262 82.915 70.0542 76.4243 72.6172L76.3819 72.634L76.3402 72.6522C74.6063 73.4111 72.6891 73.8333 70.6667 73.8333H26.6667C18.8426 73.8333 12.5 67.4907 12.5 59.6667C12.5 52.815 17.3665 47.0945 23.833 45.783Z" stroke="white" stroke-width="5"/>
</svg>
