<svg width="100" height="100" viewBox="0 0 100 100" fill="none" xmlns="http://www.w3.org/2000/svg">
<g clip-path="url(#clip0)">
<path d="M24.3299 48.2331L28.4032 47.4069L28.3354 43.2513C28.334 43.1677 28.3333 43.084 28.3333 43C28.3333 34.7157 35.0491 28 43.3333 28C50.2436 28 56.0743 32.6771 57.8084 39.0472L59.2771 44.4428L64.4754 42.382C66.1785 41.7068 68.0396 41.3333 70 41.3333C78.2843 41.3333 85 48.0491 85 56.3333C85 62.6655 81.0745 68.0931 75.5061 70.292L75.4213 70.3254L75.3379 70.362C73.914 70.9851 72.3376 71.3333 70.6667 71.3333H70.5C69.1193 71.3333 68 72.4526 68 73.8333V73.8333C68 75.214 69.1193 76.3333 70.5 76.3333H70.6667C73.0406 76.3333 75.2985 75.837 77.3425 74.9425C84.7554 72.0153 90 64.7868 90 56.3333C90 45.2876 81.0457 36.3333 70 36.3333C68.9461 36.3333 67.9113 36.4148 66.9015 36.5719C65.4184 36.8026 63.9892 37.1962 62.6328 37.7339C62.2401 36.2915 61.6901 34.9139 61.0022 33.6207C57.641 27.3021 50.9896 23 43.3333 23C32.2876 23 23.3333 31.9543 23.3333 43C23.3333 43.1112 23.3342 43.2221 23.336 43.3328C15.7272 44.876 10 51.6025 10 59.6667C10 68.8714 17.4619 76.3333 26.6667 76.3333H27.5C28.8807 76.3333 30 75.214 30 73.8333V73.8333C30 72.4526 28.8807 71.3333 27.5 71.3333H26.6667C20.2233 71.3333 15 66.11 15 59.6667C15 54.0276 19.0058 49.3129 24.3299 48.2331Z" fill="white"/>
<rect x="38.2817" y="73.9199" width="2" height="8" rx="1" transform="rotate(-160 38.2817 73.9199)" fill="#C4C4C4" stroke="white" stroke-width="2"/>
<rect x="49.1611" y="77.4833" width="2" height="8" rx="1" transform="rotate(-160 49.1611 77.4833)" fill="#C4C4C4" stroke="white" stroke-width="2"/>
<rect x="61.2817" y="73.9199" width="2" height="8" rx="1" transform="rotate(-160 61.2817 73.9199)" fill="#C4C4C4" stroke="white" stroke-width="2"/>
<rect x="34.2817" y="84.9199" width="2" height="8" rx="1" transform="rotate(-160 34.2817 84.9199)" fill="#C4C4C4" stroke="white" stroke-width="2"/>
<rect x="45.1611" y="88.4833" width="2" height="8" rx="1" transform="rotate(-160 45.1611 88.4833)" fill="#C4C4C4" stroke="white" stroke-width="2"/>
<rect x="57.2817" y="84.9199" width="2" height="8" rx="1" transform="rotate(-160 57.2817 84.9199)" fill="#C4C4C4" stroke="white" stroke-width="2"/>
<path fill-rule="evenodd" clip-rule="evenodd" d="M70.5101 29.478C67.4005 23.1312 69.2558 15.6438 74.6678 11.355C73.7528 16.3651 74.3745 21.7005 76.7969 26.6448C79.1898 31.5287 82.9727 35.2848 87.4373 37.6912C85.2832 38.1279 83.0986 38.0942 81.0213 37.6415C83.132 39.0379 84.9623 40.8239 86.4098 42.8971C88.6946 42.6674 90.9784 42.0504 93.1669 41.0135C93.6566 40.7815 94.1325 40.5328 94.5943 40.2683C96.7018 39.0613 98.5154 37.5268 100 35.7635C97.8485 35.803 95.7166 35.5046 93.6837 34.8953C88.4397 33.3237 83.854 29.6843 81.287 24.4449C78.7249 19.2157 78.6835 13.4335 80.6897 8.42807C81.473 6.47394 82.5683 4.63821 83.9475 3C81.6502 3.04223 79.3305 3.46985 77.0848 4.31605C76.5566 4.51507 76.0325 4.73724 75.5138 4.983C65.3958 9.77663 61.1453 21.7283 66.0201 31.6779C66.5039 32.6654 67.0595 33.596 67.6776 34.4667C68.4395 34.3786 69.2145 34.3333 70 34.3333C71.7783 34.3333 73.5023 34.5654 75.1435 35.0009C73.223 33.5958 71.6139 31.7307 70.5101 29.478Z" fill="#FBFF47"/>
</g>
<defs>
<clipPath id="clip0">
<rect width="100" height="100" fill="white"/>
</clipPath>
</defs>
</svg>
