<svg width="100" height="100" viewBox="0 0 100 100" fill="none" xmlns="http://www.w3.org/2000/svg">
<path d="M24.3299 48.2331L28.4032 47.4069L28.3354 43.2513C28.334 43.1677 28.3333 43.084 28.3333 43C28.3333 34.7157 35.0491 28 43.3333 28C50.2436 28 56.0743 32.6771 57.8084 39.0472L59.2771 44.4428L64.4754 42.382C66.1785 41.7068 68.0396 41.3333 70 41.3333C78.2843 41.3333 85 48.0491 85 56.3333C85 62.6655 81.0745 68.0931 75.5061 70.292L75.4213 70.3254L75.3379 70.362C73.914 70.9851 72.3376 71.3333 70.6667 71.3333H70.5C69.1193 71.3333 68 72.4526 68 73.8333V73.8333C68 75.214 69.1193 76.3333 70.5 76.3333H70.6667C73.0406 76.3333 75.2985 75.837 77.3425 74.9425C84.7554 72.0153 90 64.7868 90 56.3333C90 45.2876 81.0457 36.3333 70 36.3333C68.9461 36.3333 67.9113 36.4148 66.9015 36.5719C65.4184 36.8026 63.9892 37.1962 62.6328 37.7339C62.2401 36.2915 61.6901 34.9139 61.0022 33.6207C57.641 27.3021 50.9896 23 43.3333 23C32.2876 23 23.3333 31.9543 23.3333 43C23.3333 43.1112 23.3342 43.2221 23.336 43.3328C15.7272 44.876 10 51.6025 10 59.6667C10 68.8714 17.4619 76.3333 26.6667 76.3333H27.5C28.8807 76.3333 30 75.214 30 73.8333V73.8333C30 72.4526 28.8807 71.3333 27.5 71.3333H26.6667C20.2233 71.3333 15 66.11 15 59.6667C15 54.0276 19.0058 49.3129 24.3299 48.2331Z" fill="white"/>
<rect x="38.2817" y="73.9199" width="2" height="8" rx="1" transform="rotate(-160 38.2817 73.9199)" fill="#C4C4C4" stroke="white" stroke-width="2"/>
<rect x="49.1611" y="77.4833" width="2" height="8" rx="1" transform="rotate(-160 49.1611 77.4833)" fill="#C4C4C4" stroke="white" stroke-width="2"/>
<rect x="34.2817" y="84.9199" width="2" height="8" rx="1" transform="rotate(-160 34.2817 84.9199)" fill="#C4C4C4" stroke="white" stroke-width="2"/>
<rect x="45.1611" y="88.4833" width="2" height="8" rx="1" transform="rotate(-160 45.1611 88.4833)" fill="#C4C4C4" stroke="white" stroke-width="2"/>
<path d="M64.6227 71.1156L62.9211 70.932L65.541 66.5938C65.6891 66.3097 66.0118 65.8484 65.9278 65.5393C65.9555 64.9252 65.3632 64.7868 65.1699 64.7659L60.9765 64.6609C60.7445 64.6358 60.4869 64.8481 60.3711 65.1957L57.0005 74.3139C56.8912 74.6022 56.8978 74.903 56.9883 75.1528C57.0787 75.4026 57.2206 75.5379 57.4139 75.5588L58.6515 75.6923L56.323 82.0424C56.1622 82.4452 56.2334 82.8729 56.4398 83.1353C56.5107 83.2029 56.6204 83.2748 56.7364 83.2873C56.8911 83.304 57.0586 83.202 57.1938 83.0366L64.8171 72.5769C64.9974 72.3563 65.3074 71.8194 65.2234 71.5103C65.2554 71.2137 64.8547 71.1407 64.6227 71.1156Z" fill="#FBFF47"/>
</svg>
