<svg width="28" height="31" viewBox="0 0 28 31" fill="none" xmlns="http://www.w3.org/2000/svg">
<path d="M27.4827 19.3507L15.9459 9.76485L15.1502 9.10256C14.4367 8.53015 13.4389 8.48446 12.6768 8.98927L0.508658 18.0959C0.190012 18.319 0 18.6852 0 19.0762C0 19.4672 0.190012 19.8335 0.508658 20.0566L1.37349 20.745L12.8844 30.3309C13.5979 30.9033 14.5956 30.949 15.3578 30.4442L27.4913 21.3115C27.81 21.0883 28 20.7221 28 20.3311C28 19.9401 27.81 19.5739 27.4913 19.3507" fill="#DADADA"/>
<path d="M27.4827 11.0458L15.9459 1.45995L15.1502 0.762797C14.4367 0.190396 13.4389 0.144697 12.6768 0.649509L0.508658 9.79095C0.190012 10.0141 0 10.3803 0 10.7713C0 11.1623 0.190012 11.5286 0.508658 11.7517L1.37349 12.4401L12.8844 22.026C13.5979 22.5984 14.5956 22.6441 15.3578 22.1393L27.4913 13.0066C27.81 12.7834 28 12.4172 28 12.0262C28 11.6352 27.81 11.269 27.4913 11.0458" fill="#7C4DFF"/>
<path d="M21.5673 10.7582L15.0898 5.39015L14.64 5.01543C14.2398 4.69727 13.6825 4.6727 13.2563 4.95443L6.42416 10.0785C6.24672 10.2042 6.14111 10.409 6.14111 10.6275C6.14111 10.8461 6.24672 11.0509 6.42416 11.1765L6.88252 11.56L13.3428 16.9455C13.7447 17.2678 14.307 17.2925 14.7352 17.0065L21.5673 11.8824C21.7448 11.7568 21.8504 11.5519 21.8504 11.3334C21.8504 11.1149 21.7448 10.91 21.5673 10.7844" fill="#5736B3"/>
<path d="M6.43266 11.1853L6.67482 11.3857L13.2562 6.40106C13.6843 6.1151 14.2466 6.13973 14.6485 6.46206L15.0983 6.83678L21.3337 12.0654L21.5758 11.8824C21.7533 11.7568 21.8589 11.552 21.8589 11.3334C21.8589 11.1149 21.7533 10.9101 21.5758 10.7844L15.0896 5.39018L14.6399 5.01546C14.238 4.69314 13.6757 4.6685 13.2475 4.95446L6.41537 10.0786C6.23793 10.2042 6.13232 10.409 6.13232 10.6276C6.13232 10.8461 6.23793 11.0509 6.41537 11.1766" fill="#3E2780"/>
</svg>
