<svg width="91" height="91" viewBox="0 0 91 91" fill="none" xmlns="http://www.w3.org/2000/svg">
<path d="M67.5831 23C64.8419 23 62.1812 24.1231 60.3269 26.1286C59.1175 27.4121 59.1981 29.4176 60.4881 30.7011C61.7781 31.9044 63.7937 31.8242 65.0837 30.5407C65.7287 29.8187 66.6156 29.4176 67.5831 29.4176C69.5181 29.4176 71.05 30.9418 71.05 32.867C71.05 34.7923 69.5181 36.3165 67.5831 36.3165H16.225C14.4512 36.3165 13 37.7604 13 39.5253C13 41.2901 14.4512 42.7341 16.225 42.7341H67.5831C73.0656 42.7341 77.5 38.322 77.5 32.867C77.5 27.4121 73.0656 23 67.5831 23Z" fill="white"/>
<path d="M52.9094 47.0659H16.225C14.4512 47.0659 13 48.5099 13 50.2747C13 52.0395 14.4512 53.4835 16.225 53.4835H52.9094C54.8444 53.4835 56.3762 55.0077 56.3762 56.933C56.3762 58.8582 54.8444 60.3824 52.9094 60.3824C51.9419 60.3824 51.055 59.9813 50.41 59.2593C49.2006 57.9758 47.185 57.8956 45.8144 59.0989C44.5244 60.3022 44.4437 62.3077 45.6531 63.6714C47.5075 65.6769 50.1681 66.8 52.9094 66.8C58.3919 66.8 62.8263 62.3879 62.8263 56.933C62.7456 51.478 58.3112 47.0659 52.9094 47.0659Z" fill="white"/>
</svg>
